<svg width="20" height="20" viewBox="0 0 20 20" fill="none" xmlns="http://www.w3.org/2000/svg">
<rect opacity="0.4" width="0.01" height="0.01" fill="#637381"/>
<path fill-rule="evenodd" clip-rule="evenodd" d="M12.5003 3.33325H7.50033V16.6666H12.5003V3.33325ZM14.167 16.6666H16.667C17.109 16.6666 17.5329 16.491 17.8455 16.1784C18.1581 15.8659 18.3337 15.4419 18.3337 14.9999V4.99992C18.3337 4.55789 18.1581 4.13397 17.8455 3.82141C17.5329 3.50885 17.109 3.33325 16.667 3.33325H14.167V16.6666ZM3.33366 3.33325H5.83366V16.6666H3.33366C2.89163 16.6666 2.46771 16.491 2.15515 16.1784C1.84259 15.8659 1.66699 15.4419 1.66699 14.9999V4.99992C1.66699 4.55789 1.84259 4.13397 2.15515 3.82141C2.46771 3.50885 2.89163 3.33325 3.33366 3.33325Z" fill="#637381"/>
</svg>
