<svg width="28" height="28" viewBox="0 0 28 28" fill="none" xmlns="http://www.w3.org/2000/svg">
<rect opacity="0.4" width="0.01" height="0.01" fill="#919EAB"/>
<path d="M25.5497 14.0002C25.5497 13.8719 25.4797 13.7436 25.4447 13.6152C25.3907 13.3888 25.3205 13.1666 25.2347 12.9502C25.1763 12.8102 25.0947 12.6702 25.0247 12.5186C24.9547 12.3669 24.8497 12.1686 24.7447 12.0052C24.6397 11.8419 24.4997 11.7602 24.4997 11.6669C24.4997 11.5736 24.2663 11.3752 24.138 11.2352C24.0097 11.0952 23.893 11.0019 23.7647 10.8852L23.333 10.5002L22.913 10.2202C22.7481 10.1193 22.5766 10.0297 22.3997 9.95189L21.9447 9.74189C21.7541 9.67131 21.5593 9.61286 21.3613 9.56689C21.2045 9.52076 21.0447 9.48568 20.883 9.46189L20.6147 9.33355C20.1386 7.95812 19.2457 6.76528 18.0601 5.92101C16.8745 5.07675 15.4552 4.62305 13.9997 4.62305C12.5442 4.62305 11.1249 5.07675 9.93928 5.92101C8.75367 6.76528 7.86072 7.95812 7.38467 9.33355L7.17467 9.39189C7.01297 9.41568 6.85314 9.45076 6.69634 9.49689C6.4984 9.54286 6.30357 9.60131 6.11301 9.67189L5.65801 9.88189C5.48105 9.95967 5.30955 10.0493 5.14467 10.1502L4.72467 10.5002L4.29301 10.8619C4.16467 10.9786 4.03634 11.0836 3.91967 11.2119C3.80301 11.3402 3.67467 11.5036 3.55801 11.6436C3.44134 11.7836 3.34801 11.9119 3.25467 12.0636C3.16134 12.2152 3.06801 12.4019 2.97467 12.5769C2.88134 12.7519 2.82301 12.8686 2.76467 13.0086C2.67886 13.2249 2.60868 13.4472 2.55467 13.6736C2.55467 13.8019 2.47301 13.9302 2.44967 14.0586C2.37706 14.4237 2.33801 14.7947 2.33301 15.1669C2.33848 15.5231 2.3736 15.8782 2.43801 16.2286C2.43801 16.3452 2.49634 16.4502 2.51967 16.5669C2.57734 16.7961 2.64744 17.022 2.72967 17.2436L2.86967 17.5819C2.97237 17.8069 3.08928 18.0251 3.21967 18.2352L3.38301 18.4919C3.39979 18.5246 3.41931 18.5558 3.44134 18.5852L3.49967 18.6669C4.04303 19.3914 4.74761 19.9794 5.5576 20.3844C6.36759 20.7894 7.26074 21.0002 8.16634 21.0002H11.6663L11.6663 19.4019C11.3119 19.6075 10.9095 19.7162 10.4997 19.7169C9.86764 19.711 9.26363 19.4551 8.81967 19.0052C8.60651 18.7847 8.43892 18.5243 8.32647 18.239C8.21403 17.9537 8.15894 17.6489 8.16435 17.3423C8.16977 17.0356 8.23559 16.7331 8.35805 16.4519C8.4805 16.1707 8.65719 15.9164 8.87801 15.7036L12.378 12.3202C12.8135 11.9005 13.3949 11.6663 13.9997 11.6669C14.6175 11.6695 15.2091 11.917 15.6447 12.3552L19.1447 15.8552C19.5793 16.2924 19.8232 16.8838 19.8232 17.5002C19.8232 18.1167 19.5793 18.708 19.1447 19.1452C18.7091 19.5834 18.1175 19.8309 17.4997 19.8336C17.0893 19.8374 16.6857 19.7285 16.333 19.5186V21.0002H19.833C20.7386 21.0002 21.6318 20.7894 22.4418 20.3844C23.2517 19.9794 23.9563 19.3914 24.4997 18.6669L24.558 18.6086C24.58 18.5791 24.5996 18.5479 24.6163 18.5152L24.7797 18.2586C24.9101 18.0484 25.027 17.8302 25.1297 17.6052L25.2697 17.2669C25.3519 17.0453 25.422 16.8194 25.4797 16.5902C25.4797 16.4736 25.538 16.3686 25.5613 16.2519C25.6271 15.8939 25.6622 15.5309 25.6663 15.1669C25.665 14.7752 25.6259 14.3845 25.5497 14.0002Z" fill="#919EAB"/>
<path d="M14.828 13.1719C14.6099 12.9581 14.3167 12.8384 14.0113 12.8384C13.706 12.8384 13.4128 12.9581 13.1947 13.1719L9.69467 16.5552C9.57088 16.6574 9.46949 16.784 9.39686 16.9271C9.32422 17.0702 9.28189 17.2268 9.27253 17.387C9.26316 17.5472 9.28696 17.7077 9.34242 17.8583C9.39789 18.0089 9.48384 18.1464 9.59489 18.2623C9.70594 18.3782 9.8397 18.4699 9.98782 18.5317C10.1359 18.5936 10.2952 18.6241 10.4557 18.6216C10.6162 18.6191 10.7744 18.5834 10.9205 18.517C11.0666 18.4505 11.1974 18.3546 11.3047 18.2352L12.833 16.7536L12.833 23.3336C12.833 23.643 12.9559 23.9397 13.1747 24.1585C13.3935 24.3773 13.6903 24.5002 13.9997 24.5002C14.3091 24.5002 14.6058 24.3773 14.8246 24.1585C15.0434 23.9397 15.1663 23.643 15.1663 23.3336L15.1663 16.8119L16.6713 18.3286C16.7798 18.4379 16.9088 18.5247 17.051 18.5839C17.1932 18.6432 17.3457 18.6737 17.4997 18.6737C17.6537 18.6737 17.8062 18.6432 17.9483 18.5839C18.0905 18.5247 18.2196 18.4379 18.328 18.3286C18.4374 18.2201 18.5242 18.0911 18.5834 17.9489C18.6426 17.8067 18.6731 17.6542 18.6731 17.5002C18.6731 17.3462 18.6426 17.1937 18.5834 17.0515C18.5242 16.9094 18.4374 16.7803 18.328 16.6719L14.828 13.1719Z" fill="#919EAB"/>
</svg>
